<svg width="43" height="41" viewBox="0 0 43 41" fill="none" xmlns="http://www.w3.org/2000/svg">
<g clip-path="url(#clip0_178_2386)">
<path d="M8.2798 23.4601C9.83012 23.4601 11.3804 23.4511 12.9308 23.4671C13.2611 23.4701 13.4222 23.3891 13.5353 23.0498C14.7203 19.5067 15.9313 15.9727 17.1173 12.4297C17.2304 12.0914 17.3776 11.9753 17.7389 11.9803C19.2221 12.0033 20.7064 11.9993 22.1897 11.9823C22.5089 11.9783 22.6971 12.0714 22.8783 12.3426C23.693 13.5597 24.4606 14.8077 25.3964 15.9427C26.5474 17.3399 28.0977 17.9945 29.7852 18.4328C30.0454 18.5009 30.0964 18.3988 30.1475 18.1846C30.3516 17.3279 30.5908 16.4782 30.7059 15.6024C30.796 14.9148 30.6419 14.7887 29.9743 15.0159C29.3418 15.2311 28.6902 15.3582 28.0357 15.4773C27.5212 15.5704 27.0758 15.4193 26.7245 15.0359C25.9979 14.2433 25.4815 13.3135 24.9981 12.3616C24.8279 12.0274 25.0831 11.9823 25.2773 11.9273C26.061 11.7071 26.8497 11.5069 27.6353 11.2977C28.7583 10.9995 29.8772 10.6862 30.9512 10.2348C31.8429 9.86051 32.0191 9.62831 31.931 8.6815C31.7749 6.99206 31.5647 5.30662 31.3785 3.62018C31.2614 2.56128 31.1473 1.50237 31.0322 0.442469C31.0052 0.197259 30.9842 -0.00491332 31.3585 9.09484e-05C33.6404 0.0321183 35.9254 -0.0629629 38.2013 0.185249C38.953 0.267319 38.954 0.29134 38.7608 1.04398C38.1693 3.34395 37.2105 5.45775 35.7022 7.31233C35.2508 7.86781 34.8835 8.48533 34.5412 9.11487C34.1929 9.75542 34.237 9.87552 34.7144 10.404C35.0316 10.7553 35.0637 11.2297 35.0126 11.6821C34.9446 12.2876 34.7534 12.8821 34.33 13.3165C33.5744 14.0901 33.2501 15.0599 32.9489 16.0458C32.6416 17.0506 32.4805 18.0875 32.4384 19.1384C32.4244 19.4917 32.4614 19.826 32.7307 20.1093C32.9218 20.3104 32.9308 20.5967 32.9338 20.8649C32.9419 21.5815 32.9839 22.3001 32.8558 23.0097C32.7917 23.365 32.8988 23.4681 33.2611 23.4681C35.1948 23.4641 37.1284 23.4791 39.0621 23.5042C39.4594 23.5092 39.8628 23.5512 40.2511 23.6353C42.3989 24.0967 43.3958 26.6979 42.2008 28.6826C41.7754 29.3892 41.1208 29.8476 40.4723 30.317C39.011 31.3759 37.3296 31.9684 35.6612 32.5829C33.8216 33.2605 31.973 33.915 30.0554 34.3434C30.0063 34.3544 29.9603 34.3754 29.9113 34.3854C29.1486 34.5366 29.1186 34.5035 29.2017 33.7339C29.4609 31.3499 30.0334 29.0219 30.4657 26.6689C30.6249 25.8031 30.747 24.9294 30.8681 24.0566C30.8991 23.8344 31.0783 23.5142 30.742 23.4071C30.4127 23.302 30.0674 23.3901 29.8642 23.7133C29.615 24.1097 29.4619 24.5501 29.3268 24.9974C28.7273 26.9751 28.482 29.0289 28.0367 31.0396C27.8135 32.0454 27.6503 33.0633 27.4201 34.0672C27.225 34.9169 26.9918 35.1101 26.116 35.1521C24.9801 35.2061 23.8881 34.9489 22.8893 34.4275C21.9104 33.917 21.0187 33.884 20.0048 34.3864C18.2563 35.2532 16.3917 35.3293 14.5011 34.8989C10.1694 33.913 6.00586 32.4918 2.16958 30.2029C1.05463 29.5373 0.287978 28.6465 0.0487742 27.3364C-0.271499 25.5809 0.976566 23.8945 2.73707 23.6923C4.58064 23.4801 6.43022 23.5032 8.2788 23.4611L8.2798 23.4601ZM28.9484 23.1038C28.8554 22.8846 28.6722 22.8336 28.5161 22.7535C27.5272 22.2401 26.4843 21.8467 25.4645 21.4054C24.4866 20.982 23.5228 20.5306 22.7732 19.7329C22.2757 19.2035 22.0666 19.2245 21.7883 19.9031C21.36 20.947 20.9917 22.0149 20.5703 23.0618C20.4222 23.4291 20.5543 23.4721 20.8756 23.4661C22.8582 23.4291 24.8409 23.4261 26.8226 23.362C27.5242 23.339 28.2478 23.365 28.9484 23.1038Z" fill="#111828"/>
<path d="M2.02552 35.1065C3.04339 35.8551 3.9882 36.4566 5.14018 36.6508C7.11987 36.9831 9.0275 36.882 10.756 35.739C11.4316 35.2927 12.0161 35.3577 12.6946 35.756C15.2338 37.2473 17.82 37.1923 20.3772 35.8081C21.0728 35.4318 21.6823 35.3327 22.3849 35.736C23.0785 36.1344 23.7731 36.5217 24.3786 37.0532C24.7759 37.4025 24.9211 37.7958 24.6889 38.2912C24.5417 38.6065 24.4146 38.9358 24.2325 39.231C23.8862 39.7925 23.3707 40.0637 22.7062 39.9396C21.5842 39.7314 20.5343 39.9396 19.4984 40.383C17.5288 41.2247 15.5501 41.1647 13.5804 40.364C13.3342 40.2639 13.086 40.1688 12.8418 40.0637C12.0481 39.7214 11.2684 39.7525 10.4727 40.0887C9.32075 40.5752 8.13974 41.0075 6.87166 40.9975C5.3974 40.9855 4.02923 40.5251 2.73613 39.8355C2.32678 39.6173 2.08457 39.252 2.03253 38.8006C1.89441 37.6096 2.01151 36.4176 2.02452 35.1045L2.02552 35.1065Z" fill="#EA5762"/>
<path d="M21.4513 9.71649C19.1393 9.70848 17.4178 7.95598 17.4248 5.61899C17.4308 3.51219 19.1633 1.91383 21.4272 1.92684C23.7062 1.93985 25.3736 3.57624 25.3296 5.81516C25.2895 7.87191 23.9774 9.77854 21.4513 9.71749V9.71649Z" fill="#111828"/>
<path d="M40.9281 36.8489C40.9001 37.4304 40.885 38.0138 40.842 38.5943C40.807 39.0627 40.6308 39.4821 40.2055 39.7223C37.4331 41.2836 34.6747 41.4468 31.9154 39.6673C30.7604 38.9216 30.2069 37.7486 30.1259 36.3724C30.0918 35.7889 30.5362 35.4917 30.9105 35.1714C31.0647 35.0393 31.2208 35.2175 31.3569 35.2925C32.2697 35.8 33.1484 36.3554 34.1913 36.6096C36.3692 37.1391 38.3349 36.6157 40.2155 35.5357C40.9001 35.1424 40.9051 35.1494 40.9051 35.9481C40.9051 36.2483 40.9051 36.5476 40.9051 36.8479C40.9131 36.8479 40.9211 36.8479 40.9291 36.8489H40.9281Z" fill="#EA5762"/>
</g>
<defs>
<clipPath id="clip0_178_2386">
<rect width="42.7155" height="41" fill="white"/>
</clipPath>
</defs>
</svg>
