<svg width="28" height="49" viewBox="0 0 28 49" fill="none" xmlns="http://www.w3.org/2000/svg">
<path d="M13.4393 0.579102C13.0936 0.579102 12.7621 0.721571 12.5176 0.975155C12.2731 1.22874 12.1358 1.57268 12.1358 1.9313V12.0022C12.1358 12.3608 11.9984 12.7048 11.7539 12.9584C11.5095 13.2119 11.178 13.3544 10.8323 13.3544H10.2485C10.0771 13.3551 9.90721 13.3206 9.74871 13.2529C9.59031 13.1852 9.44641 13.0856 9.32521 12.9599C9.20401 12.8342 9.10801 12.6849 9.04271 12.5205C8.97741 12.3561 8.94421 12.18 8.94491 12.0022V1.9313C8.94491 1.57268 8.80761 1.22874 8.56311 0.975155C8.31871 0.721571 7.98711 0.579102 7.64131 0.579102H7.37961C7.20841 0.579102 7.03901 0.614104 6.88091 0.682058C6.72271 0.750012 6.57901 0.849593 6.45791 0.975155C6.33691 1.10072 6.24081 1.24979 6.17531 1.41384C6.10981 1.5779 6.07621 1.75373 6.07621 1.9313V12.0022C6.07621 12.3608 5.93891 12.7048 5.69441 12.9584C5.44991 13.2119 5.11831 13.3544 4.77261 13.3544H4.18381C3.83811 13.3544 3.50644 13.2119 3.26198 12.9584C3.01752 12.7048 2.88021 12.3608 2.88021 12.0022V1.9313C2.88021 1.75373 2.84656 1.5779 2.78105 1.41384C2.71555 1.24979 2.61949 1.10072 2.49844 0.975155C2.3774 0.849593 2.23366 0.750012 2.07551 0.682058C1.91736 0.614104 1.74795 0.579102 1.57676 0.579102C1.40558 0.579102 1.23605 0.614104 1.07789 0.682058C0.919744 0.750012 0.776014 0.849593 0.654964 0.975155C0.533924 1.10072 0.437864 1.24979 0.372354 1.41384C0.306844 1.5779 0.273193 1.75373 0.273193 1.9313V14.2054C0.272943 16.4335 1.11919 18.5719 2.62857 20.1571C3.93641 21.5374 4.79371 23.3087 5.07971 25.2213C5.30921 26.7759 5.35651 28.3536 5.22061 29.92L4.15861 44.8567C4.12781 45.3326 4.19151 45.8099 4.34581 46.2592C4.50021 46.7085 4.74201 47.1201 5.05611 47.4685C5.37011 47.8169 5.74971 48.0946 6.17151 48.2845C6.59331 48.4744 7.04821 48.5724 7.50801 48.5724C7.96781 48.5724 8.42271 48.4744 8.84451 48.2845C9.26631 48.0946 9.64591 47.8169 9.96001 47.4685C10.274 47.1201 10.5157 46.7085 10.6701 46.2592C10.8244 45.8099 10.8883 45.3326 10.8574 44.8567L9.79541 29.92C9.65871 28.3534 9.70771 26.7754 9.94141 25.2213C10.225 23.3079 11.0827 21.536 12.3925 20.1571C13.8987 18.5701 14.7428 16.4324 14.7428 14.2054V1.9313C14.7428 1.57268 14.6055 1.22874 14.3611 0.975155C14.1166 0.721571 13.785 0.579102 13.4393 0.579102Z" fill="#111828"/>
<path d="M24.3254 0.579102H24.0738C23.6202 0.578957 23.1718 0.679132 22.7585 0.872899C22.3452 1.06667 21.9765 1.34959 21.677 1.70283C21.3774 2.05606 21.1539 2.47147 21.0213 2.92138C20.8887 3.3713 20.8501 3.84537 20.908 4.31198L22.0858 13.8608C22.1232 14.1611 22.1028 14.4662 22.0259 14.7583C21.9491 15.0505 21.8171 15.3239 21.6378 15.5628L19.2975 18.6587C18.1217 20.2179 17.4822 22.1401 17.4806 24.1197V25.4301C17.4587 30.8886 18.4268 36.3027 20.3342 41.3901C21.7736 45.1752 23.6912 48.5791 25.9208 48.5791C26.1378 48.5751 26.3518 48.5261 26.5503 48.435C26.7487 48.3439 26.9275 48.2124 27.0762 48.0484C27.2249 47.8845 27.3405 47.6913 27.4161 47.4802C27.4916 47.2692 27.5256 47.0446 27.5162 46.8197V3.8891C27.5162 3.45443 27.4338 3.02401 27.2734 2.62242C27.113 2.22084 26.8779 1.85596 26.5816 1.5486C26.2853 1.24124 25.9335 0.997403 25.5464 0.83106C25.1593 0.664718 24.7444 0.579102 24.3254 0.579102Z" fill="#FC5761"/>
</svg>
