<svg width="40" height="45" viewBox="0 0 40 45" fill="none" xmlns="http://www.w3.org/2000/svg">
<path d="M0.0334332 20.4223C0.0334332 15.158 0.105046 9.89147 -0.000135112 4.6294C-0.0448929 2.34028 1.69842 -0.0430126 4.62334 -0.000413817C12.5208 0.11393 20.4228 0.0959939 28.3203 0.00631231C30.9319 -0.0228342 32.7715 2.08468 32.7513 4.42313C32.6999 9.98564 32.7357 15.5504 32.7357 21.1129C32.7357 23.3482 32.6081 23.3998 30.5157 24.0477C27.7765 24.8974 25.1022 25.9467 22.4123 26.9534C20.7809 27.5632 19.1271 28.1439 17.4666 28.682C16.7236 28.9219 16.3253 29.2201 16.3588 30.0497C16.4058 31.1684 16.417 32.2917 16.3543 33.4082C16.3141 34.1077 16.6207 34.4732 17.1757 34.7961C19.888 36.3767 22.5891 37.9775 25.2858 39.5851C25.5319 39.7308 25.7512 39.955 25.9213 40.1904C26.1831 40.5491 26.2615 40.8966 25.6304 40.9258C25.4066 40.937 25.1828 40.9348 24.959 40.9348C18.1782 40.9348 11.3952 40.8854 4.61439 40.9572C1.87521 40.9863 -0.0314655 39.0201 0.00881644 36.3274C0.0893804 31.0272 0.0311953 25.7225 0.0311953 20.4223H0.0334332Z" fill="#111828"/>
<path d="M29.6989 28.2231L19.4001 31.9269L28.3338 35.9693L32.1807 45.0003L36.0903 34.7609L39.9999 24.5215L29.6989 28.2231ZM32.9237 32.826L31.9435 35.3954L30.979 33.1309L28.7388 32.1175L31.3214 31.1871L33.9061 30.2589L32.9237 32.826Z" fill="#E75661"/>
<path d="M29.6989 28.2231L19.4001 31.9269L28.3338 35.9693L32.1807 45.0003L36.0903 34.7609L39.9999 24.5215L29.6989 28.2231ZM32.9237 32.826L31.9435 35.3954L30.979 33.1309L28.7388 32.1175L31.3214 31.1871L33.9061 30.2589L32.9237 32.826Z" fill="#E75661"/>
</svg>
